M48
; DRILL file {KiCad (5.1.4)-1} date 1/9/2021 1:56:01 PM
; FORMAT={-:-/ absolute / inch / decimal}
; #@! TF.CreationDate,2021-01-09T13:56:01-06:00
; #@! TF.GenerationSoftware,Kicad,Pcbnew,(5.1.4)-1
; #@! TF.FileFunction,Plated,1,2,PTH
FMAT,2
INCH
T1C0.0157
T2C0.0315
T3C0.0354
T4C0.0394
T5C0.0400
T6C0.0433
T7C0.0598
T8C0.1200
%
G90
G05
T1
X4.72Y-4.575
T2
X5.07Y-3.675
X5.47Y-3.675
X5.92Y-4.375
X5.92Y-4.675
X6.02Y-4.375
X6.02Y-4.675
X6.12Y-4.375
X6.12Y-4.675
X6.22Y-4.375
X6.22Y-4.675
X6.42Y-4.575
X6.82Y-4.575
X5.07Y-3.525
X5.47Y-3.525
X5.2716Y-4.575
X5.37Y-4.575
X5.07Y-3.225
X5.47Y-3.225
X5.77Y-3.275
X5.77Y-3.375
X5.77Y-3.475
X5.77Y-3.575
X5.77Y-3.675
X5.77Y-3.775
X5.77Y-3.875
X5.77Y-3.975
X5.77Y-4.075
X5.77Y-4.175
X6.07Y-3.275
X6.07Y-3.375
X6.07Y-3.475
X6.07Y-3.575
X6.07Y-3.675
X6.07Y-3.775
X6.07Y-3.875
X6.07Y-3.975
X6.07Y-4.075
X6.07Y-4.175
X5.07Y-3.375
X5.47Y-3.375
X5.57Y-4.525
X5.6684Y-4.525
X5.07Y-4.125
X5.17Y-4.025
X5.17Y-4.225
X5.07Y-3.825
X5.47Y-3.825
X5.02Y-4.425
X5.42Y-4.425
X4.5216Y-4.825
X4.62Y-4.825
T3
X5.52Y-3.975
X5.62Y-3.975
X6.82Y-3.875
X6.92Y-3.875
T5
X5.11Y-2.975
X5.21Y-2.975
X5.31Y-2.975
X5.41Y-2.975
X5.51Y-2.975
X5.61Y-2.975
X5.71Y-2.975
X5.81Y-2.975
X5.91Y-2.975
X6.01Y-2.975
X6.17Y-2.975
X6.27Y-2.975
X6.37Y-2.975
X6.47Y-2.975
X6.57Y-2.975
X6.67Y-2.975
X6.77Y-2.975
X6.87Y-2.975
X6.37Y-4.875
X6.47Y-4.875
X6.57Y-4.875
X6.67Y-4.875
X6.77Y-4.875
X6.87Y-4.875
X5.47Y-4.875
X5.57Y-4.875
X5.67Y-4.875
X5.77Y-4.875
X5.87Y-4.875
X5.97Y-4.875
X6.07Y-4.875
X6.17Y-4.875
T6
X6.7928Y-4.125
X6.7928Y-4.3809
X6.97Y-4.125
X6.97Y-4.3809
T7
X4.57Y-3.025
X4.57Y-3.225
T8
X4.97Y-2.975
X4.92Y-4.875
X6.97Y-3.575
X6.97Y-4.675
T4
G00X4.47Y-3.6447
M15
G01X4.47Y-3.6053
M16
G05
G00X4.5645Y-3.5659
M15
G01X4.5645Y-3.5266
M16
G05
G00X4.781Y-3.5659
M15
G01X4.781Y-3.5266
M16
G05
T0
M30
