G04 #@! TF.GenerationSoftware,KiCad,Pcbnew,(5.1.4)-1*
G04 #@! TF.CreationDate,2021-01-09T18:35:35-06:00*
G04 #@! TF.ProjectId,eom-uno-pressure-shield,656f6d2d-756e-46f2-9d70-726573737572,rev?*
G04 #@! TF.SameCoordinates,Original*
G04 #@! TF.FileFunction,Legend,Bot*
G04 #@! TF.FilePolarity,Positive*
%FSLAX46Y46*%
G04 Gerber Fmt 4.6, Leading zero omitted, Abs format (unit mm)*
G04 Created by KiCad (PCBNEW (5.1.4)-1) date 2021-01-09 18:35:35*
%MOMM*%
%LPD*%
G04 APERTURE LIST*
%ADD10C,0.120000*%
%ADD11C,0.150000*%
G04 APERTURE END LIST*
D10*
X131588000Y-117965000D02*
X131588000Y-122065000D01*
X131588000Y-122065000D02*
X133588000Y-122065000D01*
X133588000Y-122065000D02*
X133588000Y-117965000D01*
X133588000Y-117965000D02*
X131588000Y-117965000D01*
D11*
X130506214Y-118197380D02*
X130982404Y-118197380D01*
X131030023Y-118673571D01*
X130982404Y-118625952D01*
X130887166Y-118578333D01*
X130649071Y-118578333D01*
X130553833Y-118625952D01*
X130506214Y-118673571D01*
X130458595Y-118768809D01*
X130458595Y-119006904D01*
X130506214Y-119102142D01*
X130553833Y-119149761D01*
X130649071Y-119197380D01*
X130887166Y-119197380D01*
X130982404Y-119149761D01*
X131030023Y-119102142D01*
X130125261Y-118530714D02*
X129887166Y-119197380D01*
X129649071Y-118530714D01*
X131077642Y-120737380D02*
X130458595Y-120737380D01*
X130791928Y-121118333D01*
X130649071Y-121118333D01*
X130553833Y-121165952D01*
X130506214Y-121213571D01*
X130458595Y-121308809D01*
X130458595Y-121546904D01*
X130506214Y-121642142D01*
X130553833Y-121689761D01*
X130649071Y-121737380D01*
X130934785Y-121737380D01*
X131030023Y-121689761D01*
X131077642Y-121642142D01*
X130030023Y-121642142D02*
X129982404Y-121689761D01*
X130030023Y-121737380D01*
X130077642Y-121689761D01*
X130030023Y-121642142D01*
X130030023Y-121737380D01*
X129649071Y-120737380D02*
X129030023Y-120737380D01*
X129363357Y-121118333D01*
X129220500Y-121118333D01*
X129125261Y-121165952D01*
X129077642Y-121213571D01*
X129030023Y-121308809D01*
X129030023Y-121546904D01*
X129077642Y-121642142D01*
X129125261Y-121689761D01*
X129220500Y-121737380D01*
X129506214Y-121737380D01*
X129601452Y-121689761D01*
X129649071Y-121642142D01*
X128696690Y-121070714D02*
X128458595Y-121737380D01*
X128220500Y-121070714D01*
M02*
