G04 #@! TF.GenerationSoftware,KiCad,Pcbnew,(5.1.4)-1*
G04 #@! TF.CreationDate,2021-01-09T18:35:35-06:00*
G04 #@! TF.ProjectId,eom-uno-pressure-shield,656f6d2d-756e-46f2-9d70-726573737572,rev?*
G04 #@! TF.SameCoordinates,Original*
G04 #@! TF.FileFunction,Soldermask,Bot*
G04 #@! TF.FilePolarity,Negative*
%FSLAX46Y46*%
G04 Gerber Fmt 4.6, Leading zero omitted, Abs format (unit mm)*
G04 Created by KiCad (PCBNEW (5.1.4)-1) date 2021-01-09 18:35:35*
%MOMM*%
%LPD*%
G04 APERTURE LIST*
%ADD10C,1.800000*%
%ADD11R,1.800000X1.800000*%
%ADD12C,1.600000*%
%ADD13R,1.600000X1.600000*%
%ADD14O,1.600000X2.400000*%
%ADD15R,1.600000X2.400000*%
%ADD16C,1.440000*%
%ADD17C,2.000000*%
%ADD18O,1.600000X1.600000*%
%ADD19R,1.500000X1.000000*%
%ADD20C,3.000000*%
%ADD21R,3.000000X3.000000*%
%ADD22O,1.800000X2.800000*%
%ADD23O,2.400000X1.600000*%
%ADD24R,2.400000X1.600000*%
%ADD25O,1.727200X2.032000*%
%ADD26C,4.064000*%
G04 APERTURE END LIST*
D10*
X142748000Y-100965000D03*
D11*
X140208000Y-100965000D03*
D12*
X143978000Y-114935000D03*
D13*
X141478000Y-114935000D03*
D14*
X157988000Y-118745000D03*
X150368000Y-111125000D03*
X155448000Y-118745000D03*
X152908000Y-111125000D03*
X152908000Y-118745000D03*
X155448000Y-111125000D03*
X150368000Y-118745000D03*
D15*
X157988000Y-111125000D03*
D16*
X131318000Y-102235000D03*
X128778000Y-104775000D03*
X131318000Y-107315000D03*
D17*
X177038000Y-111275000D03*
X172538000Y-111275000D03*
X177038000Y-104775000D03*
X172538000Y-104775000D03*
D18*
X128778000Y-97155000D03*
D12*
X138938000Y-97155000D03*
D18*
X128778000Y-93345000D03*
D12*
X138938000Y-93345000D03*
D18*
X128778000Y-89535000D03*
D12*
X138938000Y-89535000D03*
D18*
X128778000Y-85725000D03*
D12*
X138938000Y-85725000D03*
D18*
X128778000Y-81915000D03*
D12*
X138938000Y-81915000D03*
D18*
X173228000Y-116205000D03*
D12*
X163068000Y-116205000D03*
D18*
X127508000Y-112395000D03*
D12*
X137668000Y-112395000D03*
D19*
X132588000Y-120015000D03*
X132588000Y-121315000D03*
X132588000Y-118715000D03*
D20*
X116078000Y-81915000D03*
D21*
X116078000Y-76835000D03*
D22*
X121438000Y-90075000D03*
X115938000Y-90075000D03*
X113538000Y-92075000D03*
D10*
X173228000Y-98425000D03*
D11*
X175768000Y-98425000D03*
D12*
X133898000Y-116205000D03*
X136398000Y-116205000D03*
X114848000Y-122555000D03*
X117348000Y-122555000D03*
D23*
X154178000Y-83185000D03*
X154178000Y-85725000D03*
X154178000Y-88265000D03*
X154178000Y-90805000D03*
X146558000Y-103505000D03*
X146558000Y-106045000D03*
X154178000Y-106045000D03*
X154178000Y-103505000D03*
X146558000Y-100965000D03*
X146558000Y-98425000D03*
X146558000Y-95885000D03*
X146558000Y-93345000D03*
X154178000Y-93345000D03*
X154178000Y-95885000D03*
X154178000Y-98425000D03*
X154178000Y-100965000D03*
X146558000Y-90805000D03*
X146558000Y-88265000D03*
X146558000Y-85725000D03*
D24*
X146558000Y-83185000D03*
D25*
X138938000Y-123825000D03*
X141478000Y-123825000D03*
X144018000Y-123825000D03*
X146558000Y-123825000D03*
X149098000Y-123825000D03*
X151638000Y-123825000D03*
X154178000Y-123825000D03*
X156718000Y-123825000D03*
X161798000Y-123825000D03*
X164338000Y-123825000D03*
X166878000Y-123825000D03*
X169418000Y-123825000D03*
X171958000Y-123825000D03*
X174498000Y-123825000D03*
X129794000Y-75565000D03*
X132334000Y-75565000D03*
X134874000Y-75565000D03*
X137414000Y-75565000D03*
X139954000Y-75565000D03*
X142494000Y-75565000D03*
X145034000Y-75565000D03*
X147574000Y-75565000D03*
X150114000Y-75565000D03*
X152654000Y-75565000D03*
X156718000Y-75565000D03*
X159258000Y-75565000D03*
X161798000Y-75565000D03*
X164338000Y-75565000D03*
X166878000Y-75565000D03*
X169418000Y-75565000D03*
X171958000Y-75565000D03*
X174498000Y-75565000D03*
D26*
X124968000Y-123825000D03*
X177038000Y-118745000D03*
X126238000Y-75565000D03*
X177038000Y-90805000D03*
M02*
