G04 #@! TF.GenerationSoftware,KiCad,Pcbnew,(5.1.4)-1*
G04 #@! TF.CreationDate,2021-01-09T18:35:35-06:00*
G04 #@! TF.ProjectId,eom-uno-pressure-shield,656f6d2d-756e-46f2-9d70-726573737572,rev?*
G04 #@! TF.SameCoordinates,Original*
G04 #@! TF.FileFunction,Legend,Top*
G04 #@! TF.FilePolarity,Positive*
%FSLAX46Y46*%
G04 Gerber Fmt 4.6, Leading zero omitted, Abs format (unit mm)*
G04 Created by KiCad (PCBNEW (5.1.4)-1) date 2021-01-09 18:35:35*
%MOMM*%
%LPD*%
G04 APERTURE LIST*
%ADD10C,0.150000*%
%ADD11C,0.300000*%
%ADD12C,0.120000*%
%ADD13C,0.100000*%
%ADD14C,0.203200*%
%ADD15C,0.015000*%
G04 APERTURE END LIST*
D10*
X141794666Y-121655833D02*
X141094666Y-121655833D01*
X141094666Y-121189166D02*
X141094666Y-121055833D01*
X141128000Y-120989166D01*
X141194666Y-120922500D01*
X141328000Y-120889166D01*
X141561333Y-120889166D01*
X141694666Y-120922500D01*
X141761333Y-120989166D01*
X141794666Y-121055833D01*
X141794666Y-121189166D01*
X141761333Y-121255833D01*
X141694666Y-121322500D01*
X141561333Y-121355833D01*
X141328000Y-121355833D01*
X141194666Y-121322500D01*
X141128000Y-121255833D01*
X141094666Y-121189166D01*
X141794666Y-120189166D02*
X141461333Y-120422500D01*
X141794666Y-120589166D02*
X141094666Y-120589166D01*
X141094666Y-120322500D01*
X141128000Y-120255833D01*
X141161333Y-120222500D01*
X141228000Y-120189166D01*
X141328000Y-120189166D01*
X141394666Y-120222500D01*
X141428000Y-120255833D01*
X141461333Y-120322500D01*
X141461333Y-120589166D01*
X141428000Y-119889166D02*
X141428000Y-119655833D01*
X141794666Y-119555833D02*
X141794666Y-119889166D01*
X141094666Y-119889166D01*
X141094666Y-119555833D01*
X141428000Y-119022500D02*
X141428000Y-119255833D01*
X141794666Y-119255833D02*
X141094666Y-119255833D01*
X141094666Y-118922500D01*
X148714666Y-121322500D02*
X148714666Y-121655833D01*
X149048000Y-121689166D01*
X149014666Y-121655833D01*
X148981333Y-121589166D01*
X148981333Y-121422500D01*
X149014666Y-121355833D01*
X149048000Y-121322500D01*
X149114666Y-121289166D01*
X149281333Y-121289166D01*
X149348000Y-121322500D01*
X149381333Y-121355833D01*
X149414666Y-121422500D01*
X149414666Y-121589166D01*
X149381333Y-121655833D01*
X149348000Y-121689166D01*
X148714666Y-121089166D02*
X149414666Y-120855833D01*
X148714666Y-120622500D01*
X156334666Y-121755833D02*
X157034666Y-121522500D01*
X156334666Y-121289166D01*
X157034666Y-121055833D02*
X156568000Y-121055833D01*
X156334666Y-121055833D02*
X156368000Y-121089166D01*
X156401333Y-121055833D01*
X156368000Y-121022500D01*
X156334666Y-121055833D01*
X156401333Y-121055833D01*
X156568000Y-120722500D02*
X157034666Y-120722500D01*
X156634666Y-120722500D02*
X156601333Y-120689166D01*
X156568000Y-120622500D01*
X156568000Y-120522500D01*
X156601333Y-120455833D01*
X156668000Y-120422500D01*
X157034666Y-120422500D01*
X144334666Y-121255833D02*
X144001333Y-121489166D01*
X144334666Y-121655833D02*
X143634666Y-121655833D01*
X143634666Y-121389166D01*
X143668000Y-121322500D01*
X143701333Y-121289166D01*
X143768000Y-121255833D01*
X143868000Y-121255833D01*
X143934666Y-121289166D01*
X143968000Y-121322500D01*
X144001333Y-121389166D01*
X144001333Y-121655833D01*
X144301333Y-120989166D02*
X144334666Y-120889166D01*
X144334666Y-120722500D01*
X144301333Y-120655833D01*
X144268000Y-120622500D01*
X144201333Y-120589166D01*
X144134666Y-120589166D01*
X144068000Y-120622500D01*
X144034666Y-120655833D01*
X144001333Y-120722500D01*
X143968000Y-120855833D01*
X143934666Y-120922500D01*
X143901333Y-120955833D01*
X143834666Y-120989166D01*
X143768000Y-120989166D01*
X143701333Y-120955833D01*
X143668000Y-120922500D01*
X143634666Y-120855833D01*
X143634666Y-120689166D01*
X143668000Y-120589166D01*
X143634666Y-120389166D02*
X143634666Y-119989166D01*
X144334666Y-120189166D02*
X143634666Y-120189166D01*
X153828000Y-121289166D02*
X153794666Y-121355833D01*
X153794666Y-121455833D01*
X153828000Y-121555833D01*
X153894666Y-121622500D01*
X153961333Y-121655833D01*
X154094666Y-121689166D01*
X154194666Y-121689166D01*
X154328000Y-121655833D01*
X154394666Y-121622500D01*
X154461333Y-121555833D01*
X154494666Y-121455833D01*
X154494666Y-121389166D01*
X154461333Y-121289166D01*
X154428000Y-121255833D01*
X154194666Y-121255833D01*
X154194666Y-121389166D01*
X154494666Y-120955833D02*
X153794666Y-120955833D01*
X154494666Y-120555833D01*
X153794666Y-120555833D01*
X154494666Y-120222500D02*
X153794666Y-120222500D01*
X153794666Y-120055833D01*
X153828000Y-119955833D01*
X153894666Y-119889166D01*
X153961333Y-119855833D01*
X154094666Y-119822500D01*
X154194666Y-119822500D01*
X154328000Y-119855833D01*
X154394666Y-119889166D01*
X154461333Y-119955833D01*
X154494666Y-120055833D01*
X154494666Y-120222500D01*
X146174666Y-121722500D02*
X146174666Y-121289166D01*
X146441333Y-121522500D01*
X146441333Y-121422500D01*
X146474666Y-121355833D01*
X146508000Y-121322500D01*
X146574666Y-121289166D01*
X146741333Y-121289166D01*
X146808000Y-121322500D01*
X146841333Y-121355833D01*
X146874666Y-121422500D01*
X146874666Y-121622500D01*
X146841333Y-121689166D01*
X146808000Y-121722500D01*
X146174666Y-121089166D02*
X146874666Y-120855833D01*
X146174666Y-120622500D01*
X146174666Y-120455833D02*
X146174666Y-120022500D01*
X146441333Y-120255833D01*
X146441333Y-120155833D01*
X146474666Y-120089166D01*
X146508000Y-120055833D01*
X146574666Y-120022500D01*
X146741333Y-120022500D01*
X146808000Y-120055833D01*
X146841333Y-120089166D01*
X146874666Y-120155833D01*
X146874666Y-120355833D01*
X146841333Y-120422500D01*
X146808000Y-120455833D01*
X151288000Y-121289166D02*
X151254666Y-121355833D01*
X151254666Y-121455833D01*
X151288000Y-121555833D01*
X151354666Y-121622500D01*
X151421333Y-121655833D01*
X151554666Y-121689166D01*
X151654666Y-121689166D01*
X151788000Y-121655833D01*
X151854666Y-121622500D01*
X151921333Y-121555833D01*
X151954666Y-121455833D01*
X151954666Y-121389166D01*
X151921333Y-121289166D01*
X151888000Y-121255833D01*
X151654666Y-121255833D01*
X151654666Y-121389166D01*
X151954666Y-120955833D02*
X151254666Y-120955833D01*
X151954666Y-120555833D01*
X151254666Y-120555833D01*
X151954666Y-120222500D02*
X151254666Y-120222500D01*
X151254666Y-120055833D01*
X151288000Y-119955833D01*
X151354666Y-119889166D01*
X151421333Y-119855833D01*
X151554666Y-119822500D01*
X151654666Y-119822500D01*
X151788000Y-119855833D01*
X151854666Y-119889166D01*
X151921333Y-119955833D01*
X151954666Y-120055833D01*
X151954666Y-120222500D01*
X161964666Y-121632023D02*
X161964666Y-121155833D01*
X162250380Y-121727261D02*
X161250380Y-121393928D01*
X162250380Y-121060595D01*
X161250380Y-120536785D02*
X161250380Y-120441547D01*
X161298000Y-120346309D01*
X161345619Y-120298690D01*
X161440857Y-120251071D01*
X161631333Y-120203452D01*
X161869428Y-120203452D01*
X162059904Y-120251071D01*
X162155142Y-120298690D01*
X162202761Y-120346309D01*
X162250380Y-120441547D01*
X162250380Y-120536785D01*
X162202761Y-120632023D01*
X162155142Y-120679642D01*
X162059904Y-120727261D01*
X161869428Y-120774880D01*
X161631333Y-120774880D01*
X161440857Y-120727261D01*
X161345619Y-120679642D01*
X161298000Y-120632023D01*
X161250380Y-120536785D01*
X164504666Y-121632023D02*
X164504666Y-121155833D01*
X164790380Y-121727261D02*
X163790380Y-121393928D01*
X164790380Y-121060595D01*
X164790380Y-120203452D02*
X164790380Y-120774880D01*
X164790380Y-120489166D02*
X163790380Y-120489166D01*
X163933238Y-120584404D01*
X164028476Y-120679642D01*
X164076095Y-120774880D01*
X167044666Y-121632023D02*
X167044666Y-121155833D01*
X167330380Y-121727261D02*
X166330380Y-121393928D01*
X167330380Y-121060595D01*
X166425619Y-120774880D02*
X166378000Y-120727261D01*
X166330380Y-120632023D01*
X166330380Y-120393928D01*
X166378000Y-120298690D01*
X166425619Y-120251071D01*
X166520857Y-120203452D01*
X166616095Y-120203452D01*
X166758952Y-120251071D01*
X167330380Y-120822500D01*
X167330380Y-120203452D01*
X169584666Y-121632023D02*
X169584666Y-121155833D01*
X169870380Y-121727261D02*
X168870380Y-121393928D01*
X169870380Y-121060595D01*
X168870380Y-120822500D02*
X168870380Y-120203452D01*
X169251333Y-120536785D01*
X169251333Y-120393928D01*
X169298952Y-120298690D01*
X169346571Y-120251071D01*
X169441809Y-120203452D01*
X169679904Y-120203452D01*
X169775142Y-120251071D01*
X169822761Y-120298690D01*
X169870380Y-120393928D01*
X169870380Y-120679642D01*
X169822761Y-120774880D01*
X169775142Y-120822500D01*
X172124666Y-121632023D02*
X172124666Y-121155833D01*
X172410380Y-121727261D02*
X171410380Y-121393928D01*
X172410380Y-121060595D01*
X171743714Y-120298690D02*
X172410380Y-120298690D01*
X171362761Y-120536785D02*
X172077047Y-120774880D01*
X172077047Y-120155833D01*
X174664666Y-121632023D02*
X174664666Y-121155833D01*
X174950380Y-121727261D02*
X173950380Y-121393928D01*
X174950380Y-121060595D01*
X173950380Y-120251071D02*
X173950380Y-120727261D01*
X174426571Y-120774880D01*
X174378952Y-120727261D01*
X174331333Y-120632023D01*
X174331333Y-120393928D01*
X174378952Y-120298690D01*
X174426571Y-120251071D01*
X174521809Y-120203452D01*
X174759904Y-120203452D01*
X174855142Y-120251071D01*
X174902761Y-120298690D01*
X174950380Y-120393928D01*
X174950380Y-120632023D01*
X174902761Y-120727261D01*
X174855142Y-120774880D01*
X130117809Y-79624642D02*
X130155904Y-79510357D01*
X130155904Y-79319880D01*
X130117809Y-79243690D01*
X130079714Y-79205595D01*
X130003523Y-79167500D01*
X129927333Y-79167500D01*
X129851142Y-79205595D01*
X129813047Y-79243690D01*
X129774952Y-79319880D01*
X129736857Y-79472261D01*
X129698761Y-79548452D01*
X129660666Y-79586547D01*
X129584476Y-79624642D01*
X129508285Y-79624642D01*
X129432095Y-79586547D01*
X129394000Y-79548452D01*
X129355904Y-79472261D01*
X129355904Y-79281785D01*
X129394000Y-79167500D01*
X130079714Y-78367500D02*
X130117809Y-78405595D01*
X130155904Y-78519880D01*
X130155904Y-78596071D01*
X130117809Y-78710357D01*
X130041619Y-78786547D01*
X129965428Y-78824642D01*
X129813047Y-78862738D01*
X129698761Y-78862738D01*
X129546380Y-78824642D01*
X129470190Y-78786547D01*
X129394000Y-78710357D01*
X129355904Y-78596071D01*
X129355904Y-78519880D01*
X129394000Y-78405595D01*
X129432095Y-78367500D01*
X130155904Y-77643690D02*
X130155904Y-78024642D01*
X129355904Y-78024642D01*
X132657809Y-79662738D02*
X132695904Y-79548452D01*
X132695904Y-79357976D01*
X132657809Y-79281785D01*
X132619714Y-79243690D01*
X132543523Y-79205595D01*
X132467333Y-79205595D01*
X132391142Y-79243690D01*
X132353047Y-79281785D01*
X132314952Y-79357976D01*
X132276857Y-79510357D01*
X132238761Y-79586547D01*
X132200666Y-79624642D01*
X132124476Y-79662738D01*
X132048285Y-79662738D01*
X131972095Y-79624642D01*
X131934000Y-79586547D01*
X131895904Y-79510357D01*
X131895904Y-79319880D01*
X131934000Y-79205595D01*
X132695904Y-78862738D02*
X131895904Y-78862738D01*
X131895904Y-78672261D01*
X131934000Y-78557976D01*
X132010190Y-78481785D01*
X132086380Y-78443690D01*
X132238761Y-78405595D01*
X132353047Y-78405595D01*
X132505428Y-78443690D01*
X132581619Y-78481785D01*
X132657809Y-78557976D01*
X132695904Y-78672261D01*
X132695904Y-78862738D01*
X132467333Y-78100833D02*
X132467333Y-77719880D01*
X132695904Y-78177023D02*
X131895904Y-77910357D01*
X132695904Y-77643690D01*
X135007333Y-80310357D02*
X135007333Y-79929404D01*
X135235904Y-80386547D02*
X134435904Y-80119880D01*
X135235904Y-79853214D01*
X135235904Y-79129404D02*
X134854952Y-79396071D01*
X135235904Y-79586547D02*
X134435904Y-79586547D01*
X134435904Y-79281785D01*
X134474000Y-79205595D01*
X134512095Y-79167500D01*
X134588285Y-79129404D01*
X134702571Y-79129404D01*
X134778761Y-79167500D01*
X134816857Y-79205595D01*
X134854952Y-79281785D01*
X134854952Y-79586547D01*
X134816857Y-78786547D02*
X134816857Y-78519880D01*
X135235904Y-78405595D02*
X135235904Y-78786547D01*
X134435904Y-78786547D01*
X134435904Y-78405595D01*
X134816857Y-77796071D02*
X134816857Y-78062738D01*
X135235904Y-78062738D02*
X134435904Y-78062738D01*
X134435904Y-77681785D01*
X137014000Y-79396071D02*
X136975904Y-79472261D01*
X136975904Y-79586547D01*
X137014000Y-79700833D01*
X137090190Y-79777023D01*
X137166380Y-79815119D01*
X137318761Y-79853214D01*
X137433047Y-79853214D01*
X137585428Y-79815119D01*
X137661619Y-79777023D01*
X137737809Y-79700833D01*
X137775904Y-79586547D01*
X137775904Y-79510357D01*
X137737809Y-79396071D01*
X137699714Y-79357976D01*
X137433047Y-79357976D01*
X137433047Y-79510357D01*
X137775904Y-79015119D02*
X136975904Y-79015119D01*
X137775904Y-78557976D01*
X136975904Y-78557976D01*
X137775904Y-78177023D02*
X136975904Y-78177023D01*
X136975904Y-77986547D01*
X137014000Y-77872261D01*
X137090190Y-77796071D01*
X137166380Y-77757976D01*
X137318761Y-77719880D01*
X137433047Y-77719880D01*
X137585428Y-77757976D01*
X137661619Y-77796071D01*
X137737809Y-77872261D01*
X137775904Y-77986547D01*
X137775904Y-78177023D01*
X140406380Y-78710357D02*
X140406380Y-79281785D01*
X140406380Y-78996071D02*
X139406380Y-78996071D01*
X139549238Y-79091309D01*
X139644476Y-79186547D01*
X139692095Y-79281785D01*
X139406380Y-78377023D02*
X139406380Y-77757976D01*
X139787333Y-78091309D01*
X139787333Y-77948452D01*
X139834952Y-77853214D01*
X139882571Y-77805595D01*
X139977809Y-77757976D01*
X140215904Y-77757976D01*
X140311142Y-77805595D01*
X140358761Y-77853214D01*
X140406380Y-77948452D01*
X140406380Y-78234166D01*
X140358761Y-78329404D01*
X140311142Y-78377023D01*
X142946380Y-78710357D02*
X142946380Y-79281785D01*
X142946380Y-78996071D02*
X141946380Y-78996071D01*
X142089238Y-79091309D01*
X142184476Y-79186547D01*
X142232095Y-79281785D01*
X142041619Y-78329404D02*
X141994000Y-78281785D01*
X141946380Y-78186547D01*
X141946380Y-77948452D01*
X141994000Y-77853214D01*
X142041619Y-77805595D01*
X142136857Y-77757976D01*
X142232095Y-77757976D01*
X142374952Y-77805595D01*
X142946380Y-78377023D01*
X142946380Y-77757976D01*
X145486380Y-78710357D02*
X145486380Y-79281785D01*
X145486380Y-78996071D02*
X144486380Y-78996071D01*
X144629238Y-79091309D01*
X144724476Y-79186547D01*
X144772095Y-79281785D01*
X145486380Y-77757976D02*
X145486380Y-78329404D01*
X145486380Y-78043690D02*
X144486380Y-78043690D01*
X144629238Y-78138928D01*
X144724476Y-78234166D01*
X144772095Y-78329404D01*
X148026380Y-78710357D02*
X148026380Y-79281785D01*
X148026380Y-78996071D02*
X147026380Y-78996071D01*
X147169238Y-79091309D01*
X147264476Y-79186547D01*
X147312095Y-79281785D01*
X147026380Y-78091309D02*
X147026380Y-77996071D01*
X147074000Y-77900833D01*
X147121619Y-77853214D01*
X147216857Y-77805595D01*
X147407333Y-77757976D01*
X147645428Y-77757976D01*
X147835904Y-77805595D01*
X147931142Y-77853214D01*
X147978761Y-77900833D01*
X148026380Y-77996071D01*
X148026380Y-78091309D01*
X147978761Y-78186547D01*
X147931142Y-78234166D01*
X147835904Y-78281785D01*
X147645428Y-78329404D01*
X147407333Y-78329404D01*
X147216857Y-78281785D01*
X147121619Y-78234166D01*
X147074000Y-78186547D01*
X147026380Y-78091309D01*
X150566380Y-78234166D02*
X150566380Y-78043690D01*
X150518761Y-77948452D01*
X150471142Y-77900833D01*
X150328285Y-77805595D01*
X150137809Y-77757976D01*
X149756857Y-77757976D01*
X149661619Y-77805595D01*
X149614000Y-77853214D01*
X149566380Y-77948452D01*
X149566380Y-78138928D01*
X149614000Y-78234166D01*
X149661619Y-78281785D01*
X149756857Y-78329404D01*
X149994952Y-78329404D01*
X150090190Y-78281785D01*
X150137809Y-78234166D01*
X150185428Y-78138928D01*
X150185428Y-77948452D01*
X150137809Y-77853214D01*
X150090190Y-77805595D01*
X149994952Y-77757976D01*
X152534952Y-78138928D02*
X152487333Y-78234166D01*
X152439714Y-78281785D01*
X152344476Y-78329404D01*
X152296857Y-78329404D01*
X152201619Y-78281785D01*
X152154000Y-78234166D01*
X152106380Y-78138928D01*
X152106380Y-77948452D01*
X152154000Y-77853214D01*
X152201619Y-77805595D01*
X152296857Y-77757976D01*
X152344476Y-77757976D01*
X152439714Y-77805595D01*
X152487333Y-77853214D01*
X152534952Y-77948452D01*
X152534952Y-78138928D01*
X152582571Y-78234166D01*
X152630190Y-78281785D01*
X152725428Y-78329404D01*
X152915904Y-78329404D01*
X153011142Y-78281785D01*
X153058761Y-78234166D01*
X153106380Y-78138928D01*
X153106380Y-77948452D01*
X153058761Y-77853214D01*
X153011142Y-77805595D01*
X152915904Y-77757976D01*
X152725428Y-77757976D01*
X152630190Y-77805595D01*
X152582571Y-77853214D01*
X152534952Y-77948452D01*
X174859904Y-78481785D02*
X174478952Y-78748452D01*
X174859904Y-78938928D02*
X174059904Y-78938928D01*
X174059904Y-78634166D01*
X174098000Y-78557976D01*
X174136095Y-78519880D01*
X174212285Y-78481785D01*
X174326571Y-78481785D01*
X174402761Y-78519880D01*
X174440857Y-78557976D01*
X174478952Y-78634166D01*
X174478952Y-78938928D01*
X174059904Y-78215119D02*
X174859904Y-77681785D01*
X174059904Y-77681785D02*
X174859904Y-78215119D01*
X171519904Y-78862738D02*
X171519904Y-78405595D01*
X172319904Y-78634166D02*
X171519904Y-78634166D01*
X171519904Y-78215119D02*
X172319904Y-77681785D01*
X171519904Y-77681785D02*
X172319904Y-78215119D01*
X168965619Y-78329404D02*
X168918000Y-78281785D01*
X168870380Y-78186547D01*
X168870380Y-77948452D01*
X168918000Y-77853214D01*
X168965619Y-77805595D01*
X169060857Y-77757976D01*
X169156095Y-77757976D01*
X169298952Y-77805595D01*
X169870380Y-78377023D01*
X169870380Y-77757976D01*
X166330380Y-78377023D02*
X166330380Y-77757976D01*
X166711333Y-78091309D01*
X166711333Y-77948452D01*
X166758952Y-77853214D01*
X166806571Y-77805595D01*
X166901809Y-77757976D01*
X167139904Y-77757976D01*
X167235142Y-77805595D01*
X167282761Y-77853214D01*
X167330380Y-77948452D01*
X167330380Y-78234166D01*
X167282761Y-78329404D01*
X167235142Y-78377023D01*
X164123714Y-77853214D02*
X164790380Y-77853214D01*
X163742761Y-78091309D02*
X164457047Y-78329404D01*
X164457047Y-77710357D01*
X161250380Y-77805595D02*
X161250380Y-78281785D01*
X161726571Y-78329404D01*
X161678952Y-78281785D01*
X161631333Y-78186547D01*
X161631333Y-77948452D01*
X161678952Y-77853214D01*
X161726571Y-77805595D01*
X161821809Y-77757976D01*
X162059904Y-77757976D01*
X162155142Y-77805595D01*
X162202761Y-77853214D01*
X162250380Y-77948452D01*
X162250380Y-78186547D01*
X162202761Y-78281785D01*
X162155142Y-78329404D01*
X158710380Y-77853214D02*
X158710380Y-78043690D01*
X158758000Y-78138928D01*
X158805619Y-78186547D01*
X158948476Y-78281785D01*
X159138952Y-78329404D01*
X159519904Y-78329404D01*
X159615142Y-78281785D01*
X159662761Y-78234166D01*
X159710380Y-78138928D01*
X159710380Y-77948452D01*
X159662761Y-77853214D01*
X159615142Y-77805595D01*
X159519904Y-77757976D01*
X159281809Y-77757976D01*
X159186571Y-77805595D01*
X159138952Y-77853214D01*
X159091333Y-77948452D01*
X159091333Y-78138928D01*
X159138952Y-78234166D01*
X159186571Y-78281785D01*
X159281809Y-78329404D01*
X156170380Y-78377023D02*
X156170380Y-77710357D01*
X157170380Y-78138928D01*
X129326095Y-124007619D02*
X129373714Y-123960000D01*
X129468952Y-123912380D01*
X129707047Y-123912380D01*
X129802285Y-123960000D01*
X129849904Y-124007619D01*
X129897523Y-124102857D01*
X129897523Y-124198095D01*
X129849904Y-124340952D01*
X129278476Y-124912380D01*
X129897523Y-124912380D01*
X130516571Y-123912380D02*
X130611809Y-123912380D01*
X130707047Y-123960000D01*
X130754666Y-124007619D01*
X130802285Y-124102857D01*
X130849904Y-124293333D01*
X130849904Y-124531428D01*
X130802285Y-124721904D01*
X130754666Y-124817142D01*
X130707047Y-124864761D01*
X130611809Y-124912380D01*
X130516571Y-124912380D01*
X130421333Y-124864761D01*
X130373714Y-124817142D01*
X130326095Y-124721904D01*
X130278476Y-124531428D01*
X130278476Y-124293333D01*
X130326095Y-124102857D01*
X130373714Y-124007619D01*
X130421333Y-123960000D01*
X130516571Y-123912380D01*
X131183238Y-123912380D02*
X131421333Y-124912380D01*
X131611809Y-124198095D01*
X131802285Y-124912380D01*
X132040380Y-123912380D01*
X132611809Y-123912380D02*
X132707047Y-123912380D01*
X132802285Y-123960000D01*
X132849904Y-124007619D01*
X132897523Y-124102857D01*
X132945142Y-124293333D01*
X132945142Y-124531428D01*
X132897523Y-124721904D01*
X132849904Y-124817142D01*
X132802285Y-124864761D01*
X132707047Y-124912380D01*
X132611809Y-124912380D01*
X132516571Y-124864761D01*
X132468952Y-124817142D01*
X132421333Y-124721904D01*
X132373714Y-124531428D01*
X132373714Y-124293333D01*
X132421333Y-124102857D01*
X132468952Y-124007619D01*
X132516571Y-123960000D01*
X132611809Y-123912380D01*
X133326095Y-124007619D02*
X133373714Y-123960000D01*
X133468952Y-123912380D01*
X133707047Y-123912380D01*
X133802285Y-123960000D01*
X133849904Y-124007619D01*
X133897523Y-124102857D01*
X133897523Y-124198095D01*
X133849904Y-124340952D01*
X133278476Y-124912380D01*
X133897523Y-124912380D01*
X134897523Y-124912380D02*
X134564190Y-124436190D01*
X134326095Y-124912380D02*
X134326095Y-123912380D01*
X134707047Y-123912380D01*
X134802285Y-123960000D01*
X134849904Y-124007619D01*
X134897523Y-124102857D01*
X134897523Y-124245714D01*
X134849904Y-124340952D01*
X134802285Y-124388571D01*
X134707047Y-124436190D01*
X134326095Y-124436190D01*
X135849904Y-124912380D02*
X135278476Y-124912380D01*
X135564190Y-124912380D02*
X135564190Y-123912380D01*
X135468952Y-124055238D01*
X135373714Y-124150476D01*
X135278476Y-124198095D01*
D11*
X164607761Y-110186904D02*
X162607761Y-110186904D01*
X162607761Y-109425000D01*
X162703000Y-109234523D01*
X162798238Y-109139285D01*
X162988714Y-109044047D01*
X163274428Y-109044047D01*
X163464904Y-109139285D01*
X163560142Y-109234523D01*
X163655380Y-109425000D01*
X163655380Y-110186904D01*
X164607761Y-108186904D02*
X163274428Y-108186904D01*
X163655380Y-108186904D02*
X163464904Y-108091666D01*
X163369666Y-107996428D01*
X163274428Y-107805952D01*
X163274428Y-107615476D01*
X164512523Y-106186904D02*
X164607761Y-106377380D01*
X164607761Y-106758333D01*
X164512523Y-106948809D01*
X164322047Y-107044047D01*
X163560142Y-107044047D01*
X163369666Y-106948809D01*
X163274428Y-106758333D01*
X163274428Y-106377380D01*
X163369666Y-106186904D01*
X163560142Y-106091666D01*
X163750619Y-106091666D01*
X163941095Y-107044047D01*
X164512523Y-105329761D02*
X164607761Y-105139285D01*
X164607761Y-104758333D01*
X164512523Y-104567857D01*
X164322047Y-104472619D01*
X164226809Y-104472619D01*
X164036333Y-104567857D01*
X163941095Y-104758333D01*
X163941095Y-105044047D01*
X163845857Y-105234523D01*
X163655380Y-105329761D01*
X163560142Y-105329761D01*
X163369666Y-105234523D01*
X163274428Y-105044047D01*
X163274428Y-104758333D01*
X163369666Y-104567857D01*
X164512523Y-103710714D02*
X164607761Y-103520238D01*
X164607761Y-103139285D01*
X164512523Y-102948809D01*
X164322047Y-102853571D01*
X164226809Y-102853571D01*
X164036333Y-102948809D01*
X163941095Y-103139285D01*
X163941095Y-103425000D01*
X163845857Y-103615476D01*
X163655380Y-103710714D01*
X163560142Y-103710714D01*
X163369666Y-103615476D01*
X163274428Y-103425000D01*
X163274428Y-103139285D01*
X163369666Y-102948809D01*
X163274428Y-101139285D02*
X164607761Y-101139285D01*
X163274428Y-101996428D02*
X164322047Y-101996428D01*
X164512523Y-101901190D01*
X164607761Y-101710714D01*
X164607761Y-101425000D01*
X164512523Y-101234523D01*
X164417285Y-101139285D01*
X164607761Y-100186904D02*
X163274428Y-100186904D01*
X163655380Y-100186904D02*
X163464904Y-100091666D01*
X163369666Y-99996428D01*
X163274428Y-99805952D01*
X163274428Y-99615476D01*
X164512523Y-98186904D02*
X164607761Y-98377380D01*
X164607761Y-98758333D01*
X164512523Y-98948809D01*
X164322047Y-99044047D01*
X163560142Y-99044047D01*
X163369666Y-98948809D01*
X163274428Y-98758333D01*
X163274428Y-98377380D01*
X163369666Y-98186904D01*
X163560142Y-98091666D01*
X163750619Y-98091666D01*
X163941095Y-99044047D01*
X164607761Y-94758333D02*
X164607761Y-95710714D01*
X162607761Y-95710714D01*
X164607761Y-93805952D02*
X164512523Y-93996428D01*
X164417285Y-94091666D01*
X164226809Y-94186904D01*
X163655380Y-94186904D01*
X163464904Y-94091666D01*
X163369666Y-93996428D01*
X163274428Y-93805952D01*
X163274428Y-93520238D01*
X163369666Y-93329761D01*
X163464904Y-93234523D01*
X163655380Y-93139285D01*
X164226809Y-93139285D01*
X164417285Y-93234523D01*
X164512523Y-93329761D01*
X164607761Y-93520238D01*
X164607761Y-93805952D01*
X163274428Y-91425000D02*
X164893476Y-91425000D01*
X165083952Y-91520238D01*
X165179190Y-91615476D01*
X165274428Y-91805952D01*
X165274428Y-92091666D01*
X165179190Y-92282142D01*
X164512523Y-91425000D02*
X164607761Y-91615476D01*
X164607761Y-91996428D01*
X164512523Y-92186904D01*
X164417285Y-92282142D01*
X164226809Y-92377380D01*
X163655380Y-92377380D01*
X163464904Y-92282142D01*
X163369666Y-92186904D01*
X163274428Y-91996428D01*
X163274428Y-91615476D01*
X163369666Y-91425000D01*
X163274428Y-89615476D02*
X164893476Y-89615476D01*
X165083952Y-89710714D01*
X165179190Y-89805952D01*
X165274428Y-89996428D01*
X165274428Y-90282142D01*
X165179190Y-90472619D01*
X164512523Y-89615476D02*
X164607761Y-89805952D01*
X164607761Y-90186904D01*
X164512523Y-90377380D01*
X164417285Y-90472619D01*
X164226809Y-90567857D01*
X163655380Y-90567857D01*
X163464904Y-90472619D01*
X163369666Y-90377380D01*
X163274428Y-90186904D01*
X163274428Y-89805952D01*
X163369666Y-89615476D01*
X164512523Y-87901190D02*
X164607761Y-88091666D01*
X164607761Y-88472619D01*
X164512523Y-88663095D01*
X164322047Y-88758333D01*
X163560142Y-88758333D01*
X163369666Y-88663095D01*
X163274428Y-88472619D01*
X163274428Y-88091666D01*
X163369666Y-87901190D01*
X163560142Y-87805952D01*
X163750619Y-87805952D01*
X163941095Y-88758333D01*
X164607761Y-86948809D02*
X163274428Y-86948809D01*
X163655380Y-86948809D02*
X163464904Y-86853571D01*
X163369666Y-86758333D01*
X163274428Y-86567857D01*
X163274428Y-86377380D01*
X158666571Y-99115000D02*
X157166571Y-99115000D01*
X157166571Y-98543571D01*
X157238000Y-98400714D01*
X157309428Y-98329285D01*
X157452285Y-98257857D01*
X157666571Y-98257857D01*
X157809428Y-98329285D01*
X157880857Y-98400714D01*
X157952285Y-98543571D01*
X157952285Y-99115000D01*
X158666571Y-97615000D02*
X157666571Y-97615000D01*
X157952285Y-97615000D02*
X157809428Y-97543571D01*
X157738000Y-97472142D01*
X157666571Y-97329285D01*
X157666571Y-97186428D01*
X158595142Y-96115000D02*
X158666571Y-96257857D01*
X158666571Y-96543571D01*
X158595142Y-96686428D01*
X158452285Y-96757857D01*
X157880857Y-96757857D01*
X157738000Y-96686428D01*
X157666571Y-96543571D01*
X157666571Y-96257857D01*
X157738000Y-96115000D01*
X157880857Y-96043571D01*
X158023714Y-96043571D01*
X158166571Y-96757857D01*
X158595142Y-95472142D02*
X158666571Y-95329285D01*
X158666571Y-95043571D01*
X158595142Y-94900714D01*
X158452285Y-94829285D01*
X158380857Y-94829285D01*
X158238000Y-94900714D01*
X158166571Y-95043571D01*
X158166571Y-95257857D01*
X158095142Y-95400714D01*
X157952285Y-95472142D01*
X157880857Y-95472142D01*
X157738000Y-95400714D01*
X157666571Y-95257857D01*
X157666571Y-95043571D01*
X157738000Y-94900714D01*
X158595142Y-94257857D02*
X158666571Y-94115000D01*
X158666571Y-93829285D01*
X158595142Y-93686428D01*
X158452285Y-93615000D01*
X158380857Y-93615000D01*
X158238000Y-93686428D01*
X158166571Y-93829285D01*
X158166571Y-94043571D01*
X158095142Y-94186428D01*
X157952285Y-94257857D01*
X157880857Y-94257857D01*
X157738000Y-94186428D01*
X157666571Y-94043571D01*
X157666571Y-93829285D01*
X157738000Y-93686428D01*
X157666571Y-92329285D02*
X158666571Y-92329285D01*
X157666571Y-92972142D02*
X158452285Y-92972142D01*
X158595142Y-92900714D01*
X158666571Y-92757857D01*
X158666571Y-92543571D01*
X158595142Y-92400714D01*
X158523714Y-92329285D01*
X158666571Y-91615000D02*
X157666571Y-91615000D01*
X157952285Y-91615000D02*
X157809428Y-91543571D01*
X157738000Y-91472142D01*
X157666571Y-91329285D01*
X157666571Y-91186428D01*
X158595142Y-90115000D02*
X158666571Y-90257857D01*
X158666571Y-90543571D01*
X158595142Y-90686428D01*
X158452285Y-90757857D01*
X157880857Y-90757857D01*
X157738000Y-90686428D01*
X157666571Y-90543571D01*
X157666571Y-90257857D01*
X157738000Y-90115000D01*
X157880857Y-90043571D01*
X158023714Y-90043571D01*
X158166571Y-90757857D01*
D10*
X158666571Y-106454285D02*
X158666571Y-107061428D01*
X157166571Y-107061428D01*
X158666571Y-105847142D02*
X158595142Y-105968571D01*
X158523714Y-106029285D01*
X158380857Y-106090000D01*
X157952285Y-106090000D01*
X157809428Y-106029285D01*
X157738000Y-105968571D01*
X157666571Y-105847142D01*
X157666571Y-105665000D01*
X157738000Y-105543571D01*
X157809428Y-105482857D01*
X157952285Y-105422142D01*
X158380857Y-105422142D01*
X158523714Y-105482857D01*
X158595142Y-105543571D01*
X158666571Y-105665000D01*
X158666571Y-105847142D01*
X157666571Y-104997142D02*
X158666571Y-104754285D01*
X157952285Y-104511428D01*
X158666571Y-104268571D01*
X157666571Y-104025714D01*
X158095142Y-102568571D02*
X158095142Y-101597142D01*
X158095142Y-88361428D02*
X158095142Y-87390000D01*
X158666571Y-85811428D02*
X157166571Y-85811428D01*
X157880857Y-85811428D02*
X157880857Y-85082857D01*
X158666571Y-85082857D02*
X157166571Y-85082857D01*
X158666571Y-84475714D02*
X157666571Y-84475714D01*
X157166571Y-84475714D02*
X157238000Y-84536428D01*
X157309428Y-84475714D01*
X157238000Y-84415000D01*
X157166571Y-84475714D01*
X157309428Y-84475714D01*
X157666571Y-83322142D02*
X158880857Y-83322142D01*
X159023714Y-83382857D01*
X159095142Y-83443571D01*
X159166571Y-83565000D01*
X159166571Y-83747142D01*
X159095142Y-83868571D01*
X158595142Y-83322142D02*
X158666571Y-83443571D01*
X158666571Y-83686428D01*
X158595142Y-83807857D01*
X158523714Y-83868571D01*
X158380857Y-83929285D01*
X157952285Y-83929285D01*
X157809428Y-83868571D01*
X157738000Y-83807857D01*
X157666571Y-83686428D01*
X157666571Y-83443571D01*
X157738000Y-83322142D01*
X158666571Y-82715000D02*
X157166571Y-82715000D01*
X158666571Y-82168571D02*
X157880857Y-82168571D01*
X157738000Y-82229285D01*
X157666571Y-82350714D01*
X157666571Y-82532857D01*
X157738000Y-82654285D01*
X157809428Y-82715000D01*
D11*
X170096571Y-111060714D02*
X169382285Y-111560714D01*
X170096571Y-111917857D02*
X168596571Y-111917857D01*
X168596571Y-111346428D01*
X168668000Y-111203571D01*
X168739428Y-111132142D01*
X168882285Y-111060714D01*
X169096571Y-111060714D01*
X169239428Y-111132142D01*
X169310857Y-111203571D01*
X169382285Y-111346428D01*
X169382285Y-111917857D01*
X170025142Y-109846428D02*
X170096571Y-109989285D01*
X170096571Y-110275000D01*
X170025142Y-110417857D01*
X169882285Y-110489285D01*
X169310857Y-110489285D01*
X169168000Y-110417857D01*
X169096571Y-110275000D01*
X169096571Y-109989285D01*
X169168000Y-109846428D01*
X169310857Y-109775000D01*
X169453714Y-109775000D01*
X169596571Y-110489285D01*
X170025142Y-108489285D02*
X170096571Y-108632142D01*
X170096571Y-108917857D01*
X170025142Y-109060714D01*
X169953714Y-109132142D01*
X169810857Y-109203571D01*
X169382285Y-109203571D01*
X169239428Y-109132142D01*
X169168000Y-109060714D01*
X169096571Y-108917857D01*
X169096571Y-108632142D01*
X169168000Y-108489285D01*
X170096571Y-107632142D02*
X170025142Y-107775000D01*
X169953714Y-107846428D01*
X169810857Y-107917857D01*
X169382285Y-107917857D01*
X169239428Y-107846428D01*
X169168000Y-107775000D01*
X169096571Y-107632142D01*
X169096571Y-107417857D01*
X169168000Y-107275000D01*
X169239428Y-107203571D01*
X169382285Y-107132142D01*
X169810857Y-107132142D01*
X169953714Y-107203571D01*
X170025142Y-107275000D01*
X170096571Y-107417857D01*
X170096571Y-107632142D01*
X170096571Y-106489285D02*
X169096571Y-106489285D01*
X169382285Y-106489285D02*
X169239428Y-106417857D01*
X169168000Y-106346428D01*
X169096571Y-106203571D01*
X169096571Y-106060714D01*
X170096571Y-104917857D02*
X168596571Y-104917857D01*
X170025142Y-104917857D02*
X170096571Y-105060714D01*
X170096571Y-105346428D01*
X170025142Y-105489285D01*
X169953714Y-105560714D01*
X169810857Y-105632142D01*
X169382285Y-105632142D01*
X169239428Y-105560714D01*
X169168000Y-105489285D01*
X169096571Y-105346428D01*
X169096571Y-105060714D01*
X169168000Y-104917857D01*
X168525142Y-101989285D02*
X170453714Y-103275000D01*
X170096571Y-100346428D02*
X169096571Y-100346428D01*
X168596571Y-100346428D02*
X168668000Y-100417857D01*
X168739428Y-100346428D01*
X168668000Y-100275000D01*
X168596571Y-100346428D01*
X168739428Y-100346428D01*
X169096571Y-99632142D02*
X170096571Y-99632142D01*
X169239428Y-99632142D02*
X169168000Y-99560714D01*
X169096571Y-99417857D01*
X169096571Y-99203571D01*
X169168000Y-99060714D01*
X169310857Y-98989285D01*
X170096571Y-98989285D01*
X169096571Y-97632142D02*
X170310857Y-97632142D01*
X170453714Y-97703571D01*
X170525142Y-97775000D01*
X170596571Y-97917857D01*
X170596571Y-98132142D01*
X170525142Y-98275000D01*
X170025142Y-97632142D02*
X170096571Y-97775000D01*
X170096571Y-98060714D01*
X170025142Y-98203571D01*
X169953714Y-98275000D01*
X169810857Y-98346428D01*
X169382285Y-98346428D01*
X169239428Y-98275000D01*
X169168000Y-98203571D01*
X169096571Y-98060714D01*
X169096571Y-97775000D01*
X169168000Y-97632142D01*
X136918000Y-106096428D02*
X136846571Y-106239285D01*
X136846571Y-106453571D01*
X136918000Y-106667857D01*
X137060857Y-106810714D01*
X137203714Y-106882142D01*
X137489428Y-106953571D01*
X137703714Y-106953571D01*
X137989428Y-106882142D01*
X138132285Y-106810714D01*
X138275142Y-106667857D01*
X138346571Y-106453571D01*
X138346571Y-106310714D01*
X138275142Y-106096428D01*
X138203714Y-106025000D01*
X137703714Y-106025000D01*
X137703714Y-106310714D01*
X138346571Y-104739285D02*
X137560857Y-104739285D01*
X137418000Y-104810714D01*
X137346571Y-104953571D01*
X137346571Y-105239285D01*
X137418000Y-105382142D01*
X138275142Y-104739285D02*
X138346571Y-104882142D01*
X138346571Y-105239285D01*
X138275142Y-105382142D01*
X138132285Y-105453571D01*
X137989428Y-105453571D01*
X137846571Y-105382142D01*
X137775142Y-105239285D01*
X137775142Y-104882142D01*
X137703714Y-104739285D01*
X138346571Y-104025000D02*
X137346571Y-104025000D01*
X136846571Y-104025000D02*
X136918000Y-104096428D01*
X136989428Y-104025000D01*
X136918000Y-103953571D01*
X136846571Y-104025000D01*
X136989428Y-104025000D01*
X137346571Y-103310714D02*
X138346571Y-103310714D01*
X137489428Y-103310714D02*
X137418000Y-103239285D01*
X137346571Y-103096428D01*
X137346571Y-102882142D01*
X137418000Y-102739285D01*
X137560857Y-102667857D01*
X138346571Y-102667857D01*
X122466571Y-84800000D02*
X120966571Y-84800000D01*
X122038000Y-84300000D01*
X120966571Y-83800000D01*
X122466571Y-83800000D01*
X122466571Y-82442857D02*
X121680857Y-82442857D01*
X121538000Y-82514285D01*
X121466571Y-82657142D01*
X121466571Y-82942857D01*
X121538000Y-83085714D01*
X122395142Y-82442857D02*
X122466571Y-82585714D01*
X122466571Y-82942857D01*
X122395142Y-83085714D01*
X122252285Y-83157142D01*
X122109428Y-83157142D01*
X121966571Y-83085714D01*
X121895142Y-82942857D01*
X121895142Y-82585714D01*
X121823714Y-82442857D01*
X122466571Y-81728571D02*
X121466571Y-81728571D01*
X121752285Y-81728571D02*
X121609428Y-81657142D01*
X121538000Y-81585714D01*
X121466571Y-81442857D01*
X121466571Y-81300000D01*
X122466571Y-80800000D02*
X120966571Y-80800000D01*
X121895142Y-80657142D02*
X122466571Y-80228571D01*
X121466571Y-80228571D02*
X122038000Y-80800000D01*
X123516571Y-86264285D02*
X123516571Y-85407142D01*
X125016571Y-85835714D02*
X123516571Y-85835714D01*
X125016571Y-84907142D02*
X124016571Y-84907142D01*
X124302285Y-84907142D02*
X124159428Y-84835714D01*
X124088000Y-84764285D01*
X124016571Y-84621428D01*
X124016571Y-84478571D01*
X125016571Y-83978571D02*
X124016571Y-83978571D01*
X123516571Y-83978571D02*
X123588000Y-84050000D01*
X123659428Y-83978571D01*
X123588000Y-83907142D01*
X123516571Y-83978571D01*
X123659428Y-83978571D01*
X124016571Y-82621428D02*
X125230857Y-82621428D01*
X125373714Y-82692857D01*
X125445142Y-82764285D01*
X125516571Y-82907142D01*
X125516571Y-83121428D01*
X125445142Y-83264285D01*
X124945142Y-82621428D02*
X125016571Y-82764285D01*
X125016571Y-83050000D01*
X124945142Y-83192857D01*
X124873714Y-83264285D01*
X124730857Y-83335714D01*
X124302285Y-83335714D01*
X124159428Y-83264285D01*
X124088000Y-83192857D01*
X124016571Y-83050000D01*
X124016571Y-82764285D01*
X124088000Y-82621428D01*
X124016571Y-81264285D02*
X125230857Y-81264285D01*
X125373714Y-81335714D01*
X125445142Y-81407142D01*
X125516571Y-81550000D01*
X125516571Y-81764285D01*
X125445142Y-81907142D01*
X124945142Y-81264285D02*
X125016571Y-81407142D01*
X125016571Y-81692857D01*
X124945142Y-81835714D01*
X124873714Y-81907142D01*
X124730857Y-81978571D01*
X124302285Y-81978571D01*
X124159428Y-81907142D01*
X124088000Y-81835714D01*
X124016571Y-81692857D01*
X124016571Y-81407142D01*
X124088000Y-81264285D01*
X124945142Y-79978571D02*
X125016571Y-80121428D01*
X125016571Y-80407142D01*
X124945142Y-80550000D01*
X124802285Y-80621428D01*
X124230857Y-80621428D01*
X124088000Y-80550000D01*
X124016571Y-80407142D01*
X124016571Y-80121428D01*
X124088000Y-79978571D01*
X124230857Y-79907142D01*
X124373714Y-79907142D01*
X124516571Y-80621428D01*
X125016571Y-79264285D02*
X124016571Y-79264285D01*
X124302285Y-79264285D02*
X124159428Y-79192857D01*
X124088000Y-79121428D01*
X124016571Y-78978571D01*
X124016571Y-78835714D01*
D12*
X139918000Y-102045000D02*
X139918000Y-102201000D01*
X139918000Y-99729000D02*
X139918000Y-99885000D01*
X142519130Y-102044837D02*
G75*
G02X140437039Y-102045000I-1041130J1079837D01*
G01*
X142519130Y-99885163D02*
G75*
G03X140437039Y-99885000I-1041130J-1079837D01*
G01*
X143150335Y-102043608D02*
G75*
G02X139918000Y-102200516I-1672335J1078608D01*
G01*
X143150335Y-99886392D02*
G75*
G03X139918000Y-99729484I-1672335J-1078608D01*
G01*
X139542759Y-112781000D02*
X139542759Y-113411000D01*
X139227759Y-113096000D02*
X139857759Y-113096000D01*
X145969000Y-114533000D02*
X145969000Y-115337000D01*
X145929000Y-114302000D02*
X145929000Y-115568000D01*
X145889000Y-114133000D02*
X145889000Y-115737000D01*
X145849000Y-113995000D02*
X145849000Y-115875000D01*
X145809000Y-113876000D02*
X145809000Y-115994000D01*
X145769000Y-113770000D02*
X145769000Y-116100000D01*
X145729000Y-113673000D02*
X145729000Y-116197000D01*
X145689000Y-113585000D02*
X145689000Y-116285000D01*
X145649000Y-113503000D02*
X145649000Y-116367000D01*
X145609000Y-113426000D02*
X145609000Y-116444000D01*
X145569000Y-113354000D02*
X145569000Y-116516000D01*
X145529000Y-113285000D02*
X145529000Y-116585000D01*
X145489000Y-113221000D02*
X145489000Y-116649000D01*
X145449000Y-113159000D02*
X145449000Y-116711000D01*
X145409000Y-113101000D02*
X145409000Y-116769000D01*
X145369000Y-113045000D02*
X145369000Y-116825000D01*
X145329000Y-112991000D02*
X145329000Y-116879000D01*
X145289000Y-112940000D02*
X145289000Y-116930000D01*
X145249000Y-112891000D02*
X145249000Y-116979000D01*
X145209000Y-112843000D02*
X145209000Y-117027000D01*
X145169000Y-112798000D02*
X145169000Y-117072000D01*
X145129000Y-112753000D02*
X145129000Y-117117000D01*
X145089000Y-112711000D02*
X145089000Y-117159000D01*
X145049000Y-112670000D02*
X145049000Y-117200000D01*
X145009000Y-115975000D02*
X145009000Y-117240000D01*
X145009000Y-112630000D02*
X145009000Y-113895000D01*
X144969000Y-115975000D02*
X144969000Y-117278000D01*
X144969000Y-112592000D02*
X144969000Y-113895000D01*
X144929000Y-115975000D02*
X144929000Y-117315000D01*
X144929000Y-112555000D02*
X144929000Y-113895000D01*
X144889000Y-115975000D02*
X144889000Y-117351000D01*
X144889000Y-112519000D02*
X144889000Y-113895000D01*
X144849000Y-115975000D02*
X144849000Y-117385000D01*
X144849000Y-112485000D02*
X144849000Y-113895000D01*
X144809000Y-115975000D02*
X144809000Y-117419000D01*
X144809000Y-112451000D02*
X144809000Y-113895000D01*
X144769000Y-115975000D02*
X144769000Y-117451000D01*
X144769000Y-112419000D02*
X144769000Y-113895000D01*
X144729000Y-115975000D02*
X144729000Y-117483000D01*
X144729000Y-112387000D02*
X144729000Y-113895000D01*
X144689000Y-115975000D02*
X144689000Y-117513000D01*
X144689000Y-112357000D02*
X144689000Y-113895000D01*
X144649000Y-115975000D02*
X144649000Y-117542000D01*
X144649000Y-112328000D02*
X144649000Y-113895000D01*
X144609000Y-115975000D02*
X144609000Y-117571000D01*
X144609000Y-112299000D02*
X144609000Y-113895000D01*
X144569000Y-115975000D02*
X144569000Y-117599000D01*
X144569000Y-112271000D02*
X144569000Y-113895000D01*
X144529000Y-115975000D02*
X144529000Y-117625000D01*
X144529000Y-112245000D02*
X144529000Y-113895000D01*
X144489000Y-115975000D02*
X144489000Y-117651000D01*
X144489000Y-112219000D02*
X144489000Y-113895000D01*
X144449000Y-115975000D02*
X144449000Y-117677000D01*
X144449000Y-112193000D02*
X144449000Y-113895000D01*
X144409000Y-115975000D02*
X144409000Y-117701000D01*
X144409000Y-112169000D02*
X144409000Y-113895000D01*
X144369000Y-115975000D02*
X144369000Y-117725000D01*
X144369000Y-112145000D02*
X144369000Y-113895000D01*
X144329000Y-115975000D02*
X144329000Y-117747000D01*
X144329000Y-112123000D02*
X144329000Y-113895000D01*
X144289000Y-115975000D02*
X144289000Y-117769000D01*
X144289000Y-112101000D02*
X144289000Y-113895000D01*
X144249000Y-115975000D02*
X144249000Y-117791000D01*
X144249000Y-112079000D02*
X144249000Y-113895000D01*
X144209000Y-115975000D02*
X144209000Y-117811000D01*
X144209000Y-112059000D02*
X144209000Y-113895000D01*
X144169000Y-115975000D02*
X144169000Y-117831000D01*
X144169000Y-112039000D02*
X144169000Y-113895000D01*
X144129000Y-115975000D02*
X144129000Y-117851000D01*
X144129000Y-112019000D02*
X144129000Y-113895000D01*
X144089000Y-115975000D02*
X144089000Y-117869000D01*
X144089000Y-112001000D02*
X144089000Y-113895000D01*
X144049000Y-115975000D02*
X144049000Y-117887000D01*
X144049000Y-111983000D02*
X144049000Y-113895000D01*
X144009000Y-115975000D02*
X144009000Y-117905000D01*
X144009000Y-111965000D02*
X144009000Y-113895000D01*
X143969000Y-115975000D02*
X143969000Y-117921000D01*
X143969000Y-111949000D02*
X143969000Y-113895000D01*
X143929000Y-115975000D02*
X143929000Y-117937000D01*
X143929000Y-111933000D02*
X143929000Y-113895000D01*
X143889000Y-115975000D02*
X143889000Y-117953000D01*
X143889000Y-111917000D02*
X143889000Y-113895000D01*
X143849000Y-115975000D02*
X143849000Y-117968000D01*
X143849000Y-111902000D02*
X143849000Y-113895000D01*
X143809000Y-115975000D02*
X143809000Y-117982000D01*
X143809000Y-111888000D02*
X143809000Y-113895000D01*
X143769000Y-115975000D02*
X143769000Y-117996000D01*
X143769000Y-111874000D02*
X143769000Y-113895000D01*
X143729000Y-115975000D02*
X143729000Y-118009000D01*
X143729000Y-111861000D02*
X143729000Y-113895000D01*
X143689000Y-115975000D02*
X143689000Y-118021000D01*
X143689000Y-111849000D02*
X143689000Y-113895000D01*
X143649000Y-115975000D02*
X143649000Y-118033000D01*
X143649000Y-111837000D02*
X143649000Y-113895000D01*
X143609000Y-115975000D02*
X143609000Y-118045000D01*
X143609000Y-111825000D02*
X143609000Y-113895000D01*
X143569000Y-115975000D02*
X143569000Y-118056000D01*
X143569000Y-111814000D02*
X143569000Y-113895000D01*
X143529000Y-115975000D02*
X143529000Y-118066000D01*
X143529000Y-111804000D02*
X143529000Y-113895000D01*
X143489000Y-115975000D02*
X143489000Y-118076000D01*
X143489000Y-111794000D02*
X143489000Y-113895000D01*
X143449000Y-115975000D02*
X143449000Y-118085000D01*
X143449000Y-111785000D02*
X143449000Y-113895000D01*
X143408000Y-115975000D02*
X143408000Y-118094000D01*
X143408000Y-111776000D02*
X143408000Y-113895000D01*
X143368000Y-115975000D02*
X143368000Y-118102000D01*
X143368000Y-111768000D02*
X143368000Y-113895000D01*
X143328000Y-115975000D02*
X143328000Y-118110000D01*
X143328000Y-111760000D02*
X143328000Y-113895000D01*
X143288000Y-115975000D02*
X143288000Y-118117000D01*
X143288000Y-111753000D02*
X143288000Y-113895000D01*
X143248000Y-115975000D02*
X143248000Y-118124000D01*
X143248000Y-111746000D02*
X143248000Y-113895000D01*
X143208000Y-115975000D02*
X143208000Y-118130000D01*
X143208000Y-111740000D02*
X143208000Y-113895000D01*
X143168000Y-115975000D02*
X143168000Y-118136000D01*
X143168000Y-111734000D02*
X143168000Y-113895000D01*
X143128000Y-115975000D02*
X143128000Y-118141000D01*
X143128000Y-111729000D02*
X143128000Y-113895000D01*
X143088000Y-115975000D02*
X143088000Y-118146000D01*
X143088000Y-111724000D02*
X143088000Y-113895000D01*
X143048000Y-115975000D02*
X143048000Y-118150000D01*
X143048000Y-111720000D02*
X143048000Y-113895000D01*
X143008000Y-115975000D02*
X143008000Y-118153000D01*
X143008000Y-111717000D02*
X143008000Y-113895000D01*
X142968000Y-115975000D02*
X142968000Y-118157000D01*
X142968000Y-111713000D02*
X142968000Y-113895000D01*
X142928000Y-111711000D02*
X142928000Y-118159000D01*
X142888000Y-111708000D02*
X142888000Y-118162000D01*
X142848000Y-111707000D02*
X142848000Y-118163000D01*
X142808000Y-111705000D02*
X142808000Y-118165000D01*
X142768000Y-111705000D02*
X142768000Y-118165000D01*
X142728000Y-111705000D02*
X142728000Y-118165000D01*
X145998000Y-114935000D02*
G75*
G03X145998000Y-114935000I-3270000J0D01*
G01*
X159318000Y-117185000D02*
X159318000Y-115935000D01*
X149038000Y-117185000D02*
X159318000Y-117185000D01*
X149038000Y-112685000D02*
X149038000Y-117185000D01*
X159318000Y-112685000D02*
X149038000Y-112685000D01*
X159318000Y-113935000D02*
X159318000Y-112685000D01*
X159318000Y-115935000D02*
G75*
G02X159318000Y-113935000I0J1000000D01*
G01*
X126448000Y-109660000D02*
X126448000Y-99890000D01*
X136218000Y-109660000D02*
X136218000Y-99890000D01*
X136218000Y-99890000D02*
X126448000Y-99890000D01*
X136218000Y-109660000D02*
X126448000Y-109660000D01*
X174038000Y-111525000D02*
X175538000Y-111525000D01*
X178038000Y-110275000D02*
X178038000Y-105775000D01*
X175538000Y-104525000D02*
X174038000Y-104525000D01*
X171538000Y-105775000D02*
X171538000Y-110275000D01*
X129818000Y-97155000D02*
X130588000Y-97155000D01*
X137898000Y-97155000D02*
X137128000Y-97155000D01*
X130588000Y-98525000D02*
X137128000Y-98525000D01*
X130588000Y-95785000D02*
X130588000Y-98525000D01*
X137128000Y-95785000D02*
X130588000Y-95785000D01*
X137128000Y-98525000D02*
X137128000Y-95785000D01*
X129818000Y-93345000D02*
X130588000Y-93345000D01*
X137898000Y-93345000D02*
X137128000Y-93345000D01*
X130588000Y-94715000D02*
X137128000Y-94715000D01*
X130588000Y-91975000D02*
X130588000Y-94715000D01*
X137128000Y-91975000D02*
X130588000Y-91975000D01*
X137128000Y-94715000D02*
X137128000Y-91975000D01*
X129818000Y-89535000D02*
X130588000Y-89535000D01*
X137898000Y-89535000D02*
X137128000Y-89535000D01*
X130588000Y-90905000D02*
X137128000Y-90905000D01*
X130588000Y-88165000D02*
X130588000Y-90905000D01*
X137128000Y-88165000D02*
X130588000Y-88165000D01*
X137128000Y-90905000D02*
X137128000Y-88165000D01*
X129818000Y-85725000D02*
X130588000Y-85725000D01*
X137898000Y-85725000D02*
X137128000Y-85725000D01*
X130588000Y-87095000D02*
X137128000Y-87095000D01*
X130588000Y-84355000D02*
X130588000Y-87095000D01*
X137128000Y-84355000D02*
X130588000Y-84355000D01*
X137128000Y-87095000D02*
X137128000Y-84355000D01*
X129818000Y-81915000D02*
X130588000Y-81915000D01*
X137898000Y-81915000D02*
X137128000Y-81915000D01*
X130588000Y-83285000D02*
X137128000Y-83285000D01*
X130588000Y-80545000D02*
X130588000Y-83285000D01*
X137128000Y-80545000D02*
X130588000Y-80545000D01*
X137128000Y-83285000D02*
X137128000Y-80545000D01*
X172188000Y-116205000D02*
X171418000Y-116205000D01*
X164108000Y-116205000D02*
X164878000Y-116205000D01*
X171418000Y-114835000D02*
X164878000Y-114835000D01*
X171418000Y-117575000D02*
X171418000Y-114835000D01*
X164878000Y-117575000D02*
X171418000Y-117575000D01*
X164878000Y-114835000D02*
X164878000Y-117575000D01*
X128548000Y-112395000D02*
X129318000Y-112395000D01*
X136628000Y-112395000D02*
X135858000Y-112395000D01*
X129318000Y-113765000D02*
X135858000Y-113765000D01*
X129318000Y-111025000D02*
X129318000Y-113765000D01*
X135858000Y-111025000D02*
X129318000Y-111025000D01*
X135858000Y-113765000D02*
X135858000Y-111025000D01*
X112268000Y-74295000D02*
X112268000Y-84455000D01*
X119888000Y-74295000D02*
X112268000Y-74295000D01*
X119888000Y-84455000D02*
X119888000Y-74295000D01*
X112268000Y-84455000D02*
X119888000Y-84455000D01*
X113538000Y-84455000D02*
X113538000Y-74295000D01*
X112218000Y-94295000D02*
X108218000Y-94295000D01*
X112218000Y-96195000D02*
X112218000Y-94295000D01*
X126458000Y-96195000D02*
X112218000Y-96195000D01*
X126458000Y-87755000D02*
X126458000Y-96195000D01*
X112218000Y-87755000D02*
X126458000Y-87755000D01*
X112218000Y-88055000D02*
X112218000Y-87755000D01*
X108218000Y-88055000D02*
X112218000Y-88055000D01*
X108218000Y-94295000D02*
X108218000Y-88055000D01*
X176058000Y-97345000D02*
X176058000Y-97189000D01*
X176058000Y-99661000D02*
X176058000Y-99505000D01*
X173456870Y-97345163D02*
G75*
G02X175538961Y-97345000I1041130J-1079837D01*
G01*
X173456870Y-99504837D02*
G75*
G03X175538961Y-99505000I1041130J1079837D01*
G01*
X172825665Y-97346392D02*
G75*
G02X176058000Y-97189484I1672335J-1078608D01*
G01*
X172825665Y-99503608D02*
G75*
G03X176058000Y-99660516I1672335J1078608D01*
G01*
X132528000Y-117575000D02*
X132528000Y-114835000D01*
X137768000Y-117575000D02*
X137768000Y-114835000D01*
X137768000Y-114835000D02*
X132528000Y-114835000D01*
X137768000Y-117575000D02*
X132528000Y-117575000D01*
X113478000Y-123925000D02*
X113478000Y-121185000D01*
X118718000Y-123925000D02*
X118718000Y-121185000D01*
X118718000Y-121185000D02*
X113478000Y-121185000D01*
X118718000Y-123925000D02*
X113478000Y-123925000D01*
X155588000Y-81775000D02*
X155588000Y-107455000D01*
X145148000Y-81775000D02*
X155588000Y-81775000D01*
X145148000Y-107455000D02*
X145148000Y-81775000D01*
X155588000Y-107455000D02*
X145148000Y-107455000D01*
X144858000Y-81485000D02*
X144858000Y-83185000D01*
X146558000Y-81485000D02*
X144858000Y-81485000D01*
D13*
X115407000Y-114617500D02*
G75*
G03X115407000Y-114617500I-599000J0D01*
G01*
D14*
X124777500Y-115697000D02*
G75*
G02X124460000Y-116014500I-317500J0D01*
G01*
X124777500Y-104013000D02*
X124777500Y-115697000D01*
X124460000Y-103695500D02*
G75*
G02X124777500Y-104013000I0J-317500D01*
G01*
X112458500Y-104013000D02*
G75*
G02X112776000Y-103695500I317500J0D01*
G01*
X112458500Y-115697000D02*
X112458500Y-104013000D01*
X112776000Y-116014500D02*
G75*
G02X112458500Y-115697000I0J317500D01*
G01*
D10*
X140208000Y-125095000D02*
X157988000Y-125095000D01*
X157988000Y-125095000D02*
X157988000Y-122555000D01*
X157988000Y-122555000D02*
X140208000Y-122555000D01*
X137388000Y-125375000D02*
X138938000Y-125375000D01*
X140208000Y-125095000D02*
X140208000Y-122555000D01*
X138938000Y-122275000D02*
X137388000Y-122275000D01*
X137388000Y-122275000D02*
X137388000Y-125375000D01*
X163068000Y-125095000D02*
X175768000Y-125095000D01*
X175768000Y-125095000D02*
X175768000Y-122555000D01*
X175768000Y-122555000D02*
X163068000Y-122555000D01*
X160248000Y-125375000D02*
X161798000Y-125375000D01*
X163068000Y-125095000D02*
X163068000Y-122555000D01*
X161798000Y-122275000D02*
X160248000Y-122275000D01*
X160248000Y-122275000D02*
X160248000Y-125375000D01*
X131064000Y-76835000D02*
X153924000Y-76835000D01*
X153924000Y-76835000D02*
X153924000Y-74295000D01*
X153924000Y-74295000D02*
X131064000Y-74295000D01*
X128244000Y-77115000D02*
X129794000Y-77115000D01*
X131064000Y-76835000D02*
X131064000Y-74295000D01*
X129794000Y-74015000D02*
X128244000Y-74015000D01*
X128244000Y-74015000D02*
X128244000Y-77115000D01*
X157988000Y-76835000D02*
X175768000Y-76835000D01*
X175768000Y-76835000D02*
X175768000Y-74295000D01*
X175768000Y-74295000D02*
X157988000Y-74295000D01*
X155168000Y-77115000D02*
X156718000Y-77115000D01*
X157988000Y-76835000D02*
X157988000Y-74295000D01*
X156718000Y-74015000D02*
X155168000Y-74015000D01*
X155168000Y-74015000D02*
X155168000Y-77115000D01*
X127254000Y-123825000D02*
G75*
G03X127254000Y-123825000I-2286000J0D01*
G01*
X179324000Y-118745000D02*
G75*
G03X179324000Y-118745000I-2286000J0D01*
G01*
X128524000Y-75565000D02*
G75*
G03X128524000Y-75565000I-2286000J0D01*
G01*
X179324000Y-90805000D02*
G75*
G03X179324000Y-90805000I-2286000J0D01*
G01*
X144470380Y-99163095D02*
X143470380Y-99163095D01*
X143470380Y-98925000D01*
X143518000Y-98782142D01*
X143613238Y-98686904D01*
X143708476Y-98639285D01*
X143898952Y-98591666D01*
X144041809Y-98591666D01*
X144232285Y-98639285D01*
X144327523Y-98686904D01*
X144422761Y-98782142D01*
X144470380Y-98925000D01*
X144470380Y-99163095D01*
X144470380Y-97639285D02*
X144470380Y-98210714D01*
X144470380Y-97925000D02*
X143470380Y-97925000D01*
X143613238Y-98020238D01*
X143708476Y-98115476D01*
X143756095Y-98210714D01*
X146391333Y-117832142D02*
X146343714Y-117879761D01*
X146200857Y-117927380D01*
X146105619Y-117927380D01*
X145962761Y-117879761D01*
X145867523Y-117784523D01*
X145819904Y-117689285D01*
X145772285Y-117498809D01*
X145772285Y-117355952D01*
X145819904Y-117165476D01*
X145867523Y-117070238D01*
X145962761Y-116975000D01*
X146105619Y-116927380D01*
X146200857Y-116927380D01*
X146343714Y-116975000D01*
X146391333Y-117022619D01*
X147343714Y-117927380D02*
X146772285Y-117927380D01*
X147058000Y-117927380D02*
X147058000Y-116927380D01*
X146962761Y-117070238D01*
X146867523Y-117165476D01*
X146772285Y-117213095D01*
X159770380Y-115696904D02*
X160579904Y-115696904D01*
X160675142Y-115649285D01*
X160722761Y-115601666D01*
X160770380Y-115506428D01*
X160770380Y-115315952D01*
X160722761Y-115220714D01*
X160675142Y-115173095D01*
X160579904Y-115125476D01*
X159770380Y-115125476D01*
X160770380Y-114125476D02*
X160770380Y-114696904D01*
X160770380Y-114411190D02*
X159770380Y-114411190D01*
X159913238Y-114506428D01*
X160008476Y-114601666D01*
X160056095Y-114696904D01*
X128182761Y-101417380D02*
X127849428Y-100941190D01*
X127611333Y-101417380D02*
X127611333Y-100417380D01*
X127992285Y-100417380D01*
X128087523Y-100465000D01*
X128135142Y-100512619D01*
X128182761Y-100607857D01*
X128182761Y-100750714D01*
X128135142Y-100845952D01*
X128087523Y-100893571D01*
X127992285Y-100941190D01*
X127611333Y-100941190D01*
X128468476Y-100417380D02*
X128801809Y-101417380D01*
X129135142Y-100417380D01*
X129992285Y-101417380D02*
X129420857Y-101417380D01*
X129706571Y-101417380D02*
X129706571Y-100417380D01*
X129611333Y-100560238D01*
X129516095Y-100655476D01*
X129420857Y-100703095D01*
X141311333Y-97607380D02*
X140978000Y-97131190D01*
X140739904Y-97607380D02*
X140739904Y-96607380D01*
X141120857Y-96607380D01*
X141216095Y-96655000D01*
X141263714Y-96702619D01*
X141311333Y-96797857D01*
X141311333Y-96940714D01*
X141263714Y-97035952D01*
X141216095Y-97083571D01*
X141120857Y-97131190D01*
X140739904Y-97131190D01*
X141644666Y-96607380D02*
X142311333Y-96607380D01*
X141882761Y-97607380D01*
X141311333Y-93797380D02*
X140978000Y-93321190D01*
X140739904Y-93797380D02*
X140739904Y-92797380D01*
X141120857Y-92797380D01*
X141216095Y-92845000D01*
X141263714Y-92892619D01*
X141311333Y-92987857D01*
X141311333Y-93130714D01*
X141263714Y-93225952D01*
X141216095Y-93273571D01*
X141120857Y-93321190D01*
X140739904Y-93321190D01*
X142168476Y-92797380D02*
X141978000Y-92797380D01*
X141882761Y-92845000D01*
X141835142Y-92892619D01*
X141739904Y-93035476D01*
X141692285Y-93225952D01*
X141692285Y-93606904D01*
X141739904Y-93702142D01*
X141787523Y-93749761D01*
X141882761Y-93797380D01*
X142073238Y-93797380D01*
X142168476Y-93749761D01*
X142216095Y-93702142D01*
X142263714Y-93606904D01*
X142263714Y-93368809D01*
X142216095Y-93273571D01*
X142168476Y-93225952D01*
X142073238Y-93178333D01*
X141882761Y-93178333D01*
X141787523Y-93225952D01*
X141739904Y-93273571D01*
X141692285Y-93368809D01*
X141311333Y-89987380D02*
X140978000Y-89511190D01*
X140739904Y-89987380D02*
X140739904Y-88987380D01*
X141120857Y-88987380D01*
X141216095Y-89035000D01*
X141263714Y-89082619D01*
X141311333Y-89177857D01*
X141311333Y-89320714D01*
X141263714Y-89415952D01*
X141216095Y-89463571D01*
X141120857Y-89511190D01*
X140739904Y-89511190D01*
X142216095Y-88987380D02*
X141739904Y-88987380D01*
X141692285Y-89463571D01*
X141739904Y-89415952D01*
X141835142Y-89368333D01*
X142073238Y-89368333D01*
X142168476Y-89415952D01*
X142216095Y-89463571D01*
X142263714Y-89558809D01*
X142263714Y-89796904D01*
X142216095Y-89892142D01*
X142168476Y-89939761D01*
X142073238Y-89987380D01*
X141835142Y-89987380D01*
X141739904Y-89939761D01*
X141692285Y-89892142D01*
X141311333Y-86177380D02*
X140978000Y-85701190D01*
X140739904Y-86177380D02*
X140739904Y-85177380D01*
X141120857Y-85177380D01*
X141216095Y-85225000D01*
X141263714Y-85272619D01*
X141311333Y-85367857D01*
X141311333Y-85510714D01*
X141263714Y-85605952D01*
X141216095Y-85653571D01*
X141120857Y-85701190D01*
X140739904Y-85701190D01*
X142168476Y-85510714D02*
X142168476Y-86177380D01*
X141930380Y-85129761D02*
X141692285Y-85844047D01*
X142311333Y-85844047D01*
X141311333Y-82367380D02*
X140978000Y-81891190D01*
X140739904Y-82367380D02*
X140739904Y-81367380D01*
X141120857Y-81367380D01*
X141216095Y-81415000D01*
X141263714Y-81462619D01*
X141311333Y-81557857D01*
X141311333Y-81700714D01*
X141263714Y-81795952D01*
X141216095Y-81843571D01*
X141120857Y-81891190D01*
X140739904Y-81891190D01*
X141644666Y-81367380D02*
X142263714Y-81367380D01*
X141930380Y-81748333D01*
X142073238Y-81748333D01*
X142168476Y-81795952D01*
X142216095Y-81843571D01*
X142263714Y-81938809D01*
X142263714Y-82176904D01*
X142216095Y-82272142D01*
X142168476Y-82319761D01*
X142073238Y-82367380D01*
X141787523Y-82367380D01*
X141692285Y-82319761D01*
X141644666Y-82272142D01*
X170521333Y-119197380D02*
X170188000Y-118721190D01*
X169949904Y-119197380D02*
X169949904Y-118197380D01*
X170330857Y-118197380D01*
X170426095Y-118245000D01*
X170473714Y-118292619D01*
X170521333Y-118387857D01*
X170521333Y-118530714D01*
X170473714Y-118625952D01*
X170426095Y-118673571D01*
X170330857Y-118721190D01*
X169949904Y-118721190D01*
X170902285Y-118292619D02*
X170949904Y-118245000D01*
X171045142Y-118197380D01*
X171283238Y-118197380D01*
X171378476Y-118245000D01*
X171426095Y-118292619D01*
X171473714Y-118387857D01*
X171473714Y-118483095D01*
X171426095Y-118625952D01*
X170854666Y-119197380D01*
X171473714Y-119197380D01*
X129881333Y-115387380D02*
X129548000Y-114911190D01*
X129309904Y-115387380D02*
X129309904Y-114387380D01*
X129690857Y-114387380D01*
X129786095Y-114435000D01*
X129833714Y-114482619D01*
X129881333Y-114577857D01*
X129881333Y-114720714D01*
X129833714Y-114815952D01*
X129786095Y-114863571D01*
X129690857Y-114911190D01*
X129309904Y-114911190D01*
X130833714Y-115387380D02*
X130262285Y-115387380D01*
X130548000Y-115387380D02*
X130548000Y-114387380D01*
X130452761Y-114530238D01*
X130357523Y-114625476D01*
X130262285Y-114673095D01*
X177490380Y-96623095D02*
X176490380Y-96623095D01*
X176490380Y-96385000D01*
X176538000Y-96242142D01*
X176633238Y-96146904D01*
X176728476Y-96099285D01*
X176918952Y-96051666D01*
X177061809Y-96051666D01*
X177252285Y-96099285D01*
X177347523Y-96146904D01*
X177442761Y-96242142D01*
X177490380Y-96385000D01*
X177490380Y-96623095D01*
X176585619Y-95670714D02*
X176538000Y-95623095D01*
X176490380Y-95527857D01*
X176490380Y-95289761D01*
X176538000Y-95194523D01*
X176585619Y-95146904D01*
X176680857Y-95099285D01*
X176776095Y-95099285D01*
X176918952Y-95146904D01*
X177490380Y-95718333D01*
X177490380Y-95099285D01*
X136231333Y-119102142D02*
X136183714Y-119149761D01*
X136040857Y-119197380D01*
X135945619Y-119197380D01*
X135802761Y-119149761D01*
X135707523Y-119054523D01*
X135659904Y-118959285D01*
X135612285Y-118768809D01*
X135612285Y-118625952D01*
X135659904Y-118435476D01*
X135707523Y-118340238D01*
X135802761Y-118245000D01*
X135945619Y-118197380D01*
X136040857Y-118197380D01*
X136183714Y-118245000D01*
X136231333Y-118292619D01*
X136564666Y-118197380D02*
X137183714Y-118197380D01*
X136850380Y-118578333D01*
X136993238Y-118578333D01*
X137088476Y-118625952D01*
X137136095Y-118673571D01*
X137183714Y-118768809D01*
X137183714Y-119006904D01*
X137136095Y-119102142D01*
X137088476Y-119149761D01*
X136993238Y-119197380D01*
X136707523Y-119197380D01*
X136612285Y-119149761D01*
X136564666Y-119102142D01*
X119721333Y-122912142D02*
X119673714Y-122959761D01*
X119530857Y-123007380D01*
X119435619Y-123007380D01*
X119292761Y-122959761D01*
X119197523Y-122864523D01*
X119149904Y-122769285D01*
X119102285Y-122578809D01*
X119102285Y-122435952D01*
X119149904Y-122245476D01*
X119197523Y-122150238D01*
X119292761Y-122055000D01*
X119435619Y-122007380D01*
X119530857Y-122007380D01*
X119673714Y-122055000D01*
X119721333Y-122102619D01*
X120102285Y-122102619D02*
X120149904Y-122055000D01*
X120245142Y-122007380D01*
X120483238Y-122007380D01*
X120578476Y-122055000D01*
X120626095Y-122102619D01*
X120673714Y-122197857D01*
X120673714Y-122293095D01*
X120626095Y-122435952D01*
X120054666Y-123007380D01*
X120673714Y-123007380D01*
X149034666Y-83113571D02*
X149177523Y-83161190D01*
X149225142Y-83208809D01*
X149272761Y-83304047D01*
X149272761Y-83446904D01*
X149225142Y-83542142D01*
X149177523Y-83589761D01*
X149082285Y-83637380D01*
X148701333Y-83637380D01*
X148701333Y-82637380D01*
X149034666Y-82637380D01*
X149129904Y-82685000D01*
X149177523Y-82732619D01*
X149225142Y-82827857D01*
X149225142Y-82923095D01*
X149177523Y-83018333D01*
X149129904Y-83065952D01*
X149034666Y-83113571D01*
X148701333Y-83113571D01*
X149653714Y-83351666D02*
X150129904Y-83351666D01*
X149558476Y-83637380D02*
X149891809Y-82637380D01*
X150225142Y-83637380D01*
X151129904Y-83637380D02*
X150796571Y-83161190D01*
X150558476Y-83637380D02*
X150558476Y-82637380D01*
X150939428Y-82637380D01*
X151034666Y-82685000D01*
X151082285Y-82732619D01*
X151129904Y-82827857D01*
X151129904Y-82970714D01*
X151082285Y-83065952D01*
X151034666Y-83113571D01*
X150939428Y-83161190D01*
X150558476Y-83161190D01*
X152082285Y-83637380D02*
X151510857Y-83637380D01*
X151796571Y-83637380D02*
X151796571Y-82637380D01*
X151701333Y-82780238D01*
X151606095Y-82875476D01*
X151510857Y-82923095D01*
D15*
X124022396Y-114695434D02*
X124060560Y-114580941D01*
X124060560Y-114390120D01*
X124022396Y-114313792D01*
X123984231Y-114275627D01*
X123907903Y-114237463D01*
X123831574Y-114237463D01*
X123755246Y-114275627D01*
X123717082Y-114313792D01*
X123678917Y-114390120D01*
X123640753Y-114542777D01*
X123602589Y-114619105D01*
X123564425Y-114657270D01*
X123488096Y-114695434D01*
X123411768Y-114695434D01*
X123335439Y-114657270D01*
X123297275Y-114619105D01*
X123259111Y-114542777D01*
X123259111Y-114351956D01*
X123297275Y-114237463D01*
X124060560Y-113893985D02*
X123259111Y-113893985D01*
X124060560Y-113436014D01*
X123259111Y-113436014D01*
X124060560Y-112634565D02*
X124060560Y-113092536D01*
X124060560Y-112863551D02*
X123259111Y-112863551D01*
X123373603Y-112939879D01*
X123449932Y-113016207D01*
X123488096Y-113092536D01*
M02*
